<svg xmlns="http://www.w3.org/2000/svg" width="30" height="30" viewBox="0 0 30 30">
  <path id="icone-github" d="M17,2A15,15,0,1,0,32,17,15.012,15.012,0,0,0,17,2Zm0,1.3A13.688,13.688,0,0,1,30.7,17c0,.047,0,.092,0,.139-.417-.038-.9-.075-1.512-.1-.867-.031-1.959-.022-3.2.039a6.964,6.964,0,0,0,.079-.977,5.581,5.581,0,0,0-1.014-3.373,9.312,9.312,0,0,0,.4-2.069,3.168,3.168,0,0,0-.76-2.618L24.5,7.87h-.257a5.776,5.776,0,0,0-3.68,1.313A9.8,9.8,0,0,0,17,8.522a10.317,10.317,0,0,0-3.621.664A5.777,5.777,0,0,0,9.7,7.87H9.44l-.189.175a3.118,3.118,0,0,0-.737,2.564,9.9,9.9,0,0,0,.376,2.118A6.19,6.19,0,0,0,7.8,16.087a6.963,6.963,0,0,0,.076.98C6.7,17.012,5.654,17,4.82,17.031c-.613.022-1.095.058-1.512.1,0-.043,0-.085,0-.127A13.688,13.688,0,0,1,17,3.3ZM10.085,9.259a5.04,5.04,0,0,1,2.764,1.12l.306.27.377-.154A9.014,9.014,0,0,1,17,9.826a8.472,8.472,0,0,1,3.391.662l.382.168.312-.278a5.045,5.045,0,0,1,2.767-1.12,2.212,2.212,0,0,1,.29,1.327,9.273,9.273,0,0,1-.395,2.044l-.1.315.195.266a4.333,4.333,0,0,1,.918,2.839v.036a4.642,4.642,0,0,1-1.834,3.9,9.724,9.724,0,0,1-5.992,1.583,9.729,9.729,0,0,1-5.993-1.583,4.641,4.641,0,0,1-1.833-3.9,4.99,4.99,0,0,1,.982-2.875l.191-.26-.092-.31a9.792,9.792,0,0,1-.373-2.1A2.269,2.269,0,0,1,10.085,9.259ZM6.49,17.666c.461.006.989.031,1.518.057a6.179,6.179,0,0,0,.178.6,29.768,29.768,0,0,0-4.765.448c-.042-.326-.076-.655-.094-.988A29.249,29.249,0,0,1,6.49,17.666Zm21.02.01a29.321,29.321,0,0,1,3.162.116c-.019.328-.052.653-.093.974a30.173,30.173,0,0,0-4.9-.441c.069-.191.126-.388.176-.587C26.438,17.707,27.007,17.683,27.51,17.676ZM8.464,18.969a5.888,5.888,0,0,0,1.68,2.044,8.908,8.908,0,0,0,3.905,1.61,5.139,5.139,0,0,0-.567.7l-.039-.034a2.607,2.607,0,0,1-.814.2c-.49.044-1.094.031-1.629.031-.8,0-1.151-.377-1.713-1.065a4.629,4.629,0,0,0-1.06-1.018,2.644,2.644,0,0,0-1.1-.517l-.053-.009H7.021a1.015,1.015,0,0,0-.874.336.833.833,0,0,0-.171.694.822.822,0,0,0,.357.49c.891.594,1.049,1.77,1.608,2.816a3.022,3.022,0,0,0,2.8,1.532h1.7v3.132a13.7,13.7,0,0,1-8.914-10.5A29.355,29.355,0,0,1,8.464,18.969Zm16.937.005a29.8,29.8,0,0,1,5.079.437,13.7,13.7,0,0,1-8.915,10.5V26.521a6.112,6.112,0,0,0-.93-3.123,4.9,4.9,0,0,0-.625-.806,8.772,8.772,0,0,0,3.716-1.578A5.872,5.872,0,0,0,25.4,18.974Zm-9.25,3.96h1.827a2.049,2.049,0,0,1,1.549,1.151,5.051,5.051,0,0,1,.734,2.435V30.3a13.747,13.747,0,0,1-6.522,0V26.521a4.839,4.839,0,0,1,.788-2.42A2.219,2.219,0,0,1,16.152,22.935Zm-7.429.771A3.071,3.071,0,0,0,11,24.826c.508,0,1.142.018,1.745-.036h.006a5.817,5.817,0,0,0-.188.689H10.739a1.683,1.683,0,0,1-1.634-.814L9.1,24.655l0-.008A9.158,9.158,0,0,1,8.723,23.705Z" transform="translate(-2 -2)" fill="#fff"/>
</svg>
