<svg xmlns="http://www.w3.org/2000/svg" width="52" height="52" viewBox="0 0 52 52">
  <path id="icone-github" d="M28,2A26,26,0,1,0,54,28,26.02,26.02,0,0,0,28,2Zm0,2.261A23.726,23.726,0,0,1,51.739,28c0,.081-.006.16-.007.241-.723-.067-1.558-.13-2.621-.168-1.5-.053-3.4-.038-5.542.068a12.071,12.071,0,0,0,.137-1.693A9.674,9.674,0,0,0,41.949,20.6a16.14,16.14,0,0,0,.689-3.586c.093-1.587-.044-3.348-1.318-4.537l-.327-.3h-.446a10.011,10.011,0,0,0-6.379,2.276A16.984,16.984,0,0,0,28,13.3a17.882,17.882,0,0,0-6.277,1.15,10.013,10.013,0,0,0-6.383-2.281H14.9l-.327.3c-1.241,1.153-1.356,2.865-1.278,4.444a17.166,17.166,0,0,0,.651,3.672,10.729,10.729,0,0,0-1.881,5.824,12.068,12.068,0,0,0,.132,1.7c-2.041-.095-3.861-.113-5.306-.062-1.062.038-1.9.1-2.621.168,0-.074-.007-.147-.007-.221A23.726,23.726,0,0,1,28,4.261ZM16.013,14.583A8.736,8.736,0,0,1,20.8,16.523l.53.468.654-.267A15.624,15.624,0,0,1,28,15.565a14.685,14.685,0,0,1,5.877,1.148L34.54,17l.541-.481a8.744,8.744,0,0,1,4.8-1.941,3.835,3.835,0,0,1,.5,2.3,16.073,16.073,0,0,1-.684,3.544l-.17.545.338.461a7.51,7.51,0,0,1,1.592,4.921l0,.031v.031a8.046,8.046,0,0,1-3.179,6.752c-2.164,1.673-5.579,2.744-10.386,2.744S19.663,34.842,17.5,33.169a8.044,8.044,0,0,1-3.177-6.752,8.65,8.65,0,0,1,1.7-4.983l.331-.45-.159-.537a16.973,16.973,0,0,1-.647-3.636A3.932,3.932,0,0,1,16.013,14.583ZM9.783,29.155c.8.01,1.715.053,2.632.1a10.71,10.71,0,0,0,.309,1.038,51.6,51.6,0,0,0-8.26.777c-.073-.566-.131-1.136-.163-1.713A50.7,50.7,0,0,1,9.783,29.155Zm36.434.018a50.823,50.823,0,0,1,5.48.2c-.032.569-.09,1.131-.161,1.689a52.3,52.3,0,0,0-8.494-.764c.119-.332.218-.673.3-1.018C44.359,29.226,45.346,29.183,46.217,29.172ZM13.2,31.413a10.206,10.206,0,0,0,2.912,3.544,15.441,15.441,0,0,0,6.769,2.791,8.907,8.907,0,0,0-.983,1.21l-.068-.06a4.519,4.519,0,0,1-1.411.353c-.849.076-1.9.053-2.824.053-1.385,0-1.995-.654-2.97-1.846a8.023,8.023,0,0,0-1.837-1.764,4.583,4.583,0,0,0-1.9-.9l-.093-.015H10.7a1.759,1.759,0,0,0-1.515.583,1.444,1.444,0,0,0-.3,1.2,1.425,1.425,0,0,0,.618.85c1.545,1.03,1.818,3.069,2.786,4.882a5.239,5.239,0,0,0,4.851,2.656h2.939v5.429a23.742,23.742,0,0,1-15.451-18.2A50.881,50.881,0,0,1,13.2,31.413Zm29.358.009a51.653,51.653,0,0,1,8.8.757A23.742,23.742,0,0,1,35.913,50.386V44.5A10.594,10.594,0,0,0,34.3,39.09a8.5,8.5,0,0,0-1.084-1.4,15.205,15.205,0,0,0,6.44-2.736A10.178,10.178,0,0,0,42.563,31.422ZM26.53,38.287H29.7a3.552,3.552,0,0,1,2.685,2A8.756,8.756,0,0,1,33.652,44.5v6.555a23.828,23.828,0,0,1-11.3,0V44.5a8.388,8.388,0,0,1,1.367-4.195A3.846,3.846,0,0,1,26.53,38.287ZM13.653,39.622A5.323,5.323,0,0,0,17.6,41.565c.881,0,1.98.032,3.025-.062l.011,0A10.083,10.083,0,0,0,20.31,42.7H17.148a2.918,2.918,0,0,1-2.833-1.411l-.009-.015-.007-.013A15.873,15.873,0,0,1,13.653,39.622Z" transform="translate(-2 -2)" fill="#8000ff"/>
</svg>
