<svg xmlns="http://www.w3.org/2000/svg" width="32" height="32" viewBox="0 0 32 32">
  <path id="icone-github" d="M18,2A16,16,0,1,0,34,18,16.012,16.012,0,0,0,18,2Zm0,1.391A14.6,14.6,0,0,1,32.609,18c0,.05,0,.1,0,.148-.445-.041-.959-.08-1.613-.1-.924-.033-2.089-.023-3.41.042a7.428,7.428,0,0,0,.084-1.042,5.953,5.953,0,0,0-1.082-3.6,9.932,9.932,0,0,0,.424-2.207A3.379,3.379,0,0,0,26.2,8.448L26,8.261h-.274a6.161,6.161,0,0,0-3.925,1.4A10.452,10.452,0,0,0,18,8.957a11,11,0,0,0-3.863.708,6.162,6.162,0,0,0-3.928-1.4H9.936l-.2.186a3.326,3.326,0,0,0-.787,2.735,10.563,10.563,0,0,0,.4,2.26,6.6,6.6,0,0,0-1.158,3.584,7.427,7.427,0,0,0,.082,1.045C7.017,18.012,5.9,18,5.008,18.033c-.654.023-1.168.062-1.613.1,0-.045,0-.09,0-.136A14.6,14.6,0,0,1,18,3.391ZM10.624,9.743a5.376,5.376,0,0,1,2.948,1.194l.326.288.4-.164a9.615,9.615,0,0,1,3.7-.713,9.037,9.037,0,0,1,3.617.707l.408.179.333-.3a5.381,5.381,0,0,1,2.951-1.194,2.36,2.36,0,0,1,.31,1.416A9.891,9.891,0,0,1,25.2,13.34l-.1.336.208.284a4.621,4.621,0,0,1,.98,3.029v.038a4.952,4.952,0,0,1-1.957,4.155c-1.331,1.029-3.433,1.689-6.391,1.689s-5.061-.659-6.393-1.689a4.95,4.95,0,0,1-1.955-4.155,5.323,5.323,0,0,1,1.048-3.067l.2-.277-.1-.33a10.445,10.445,0,0,1-.4-2.238A2.42,2.42,0,0,1,10.624,9.743ZM6.789,18.711c.492.006,1.055.033,1.62.061a6.591,6.591,0,0,0,.19.639,31.753,31.753,0,0,0-5.083.478c-.045-.348-.081-.7-.1-1.054A31.2,31.2,0,0,1,6.789,18.711Zm22.421.011a31.276,31.276,0,0,1,3.372.124c-.02.35-.055.7-.1,1.039a32.184,32.184,0,0,0-5.227-.47c.073-.2.134-.414.188-.626C28.067,18.755,28.675,18.728,29.211,18.721ZM8.9,20.1a6.281,6.281,0,0,0,1.792,2.181A9.5,9.5,0,0,0,14.853,24a5.481,5.481,0,0,0-.6.745l-.042-.037a2.781,2.781,0,0,1-.868.217c-.522.047-1.167.033-1.738.033-.852,0-1.228-.4-1.827-1.136a4.937,4.937,0,0,0-1.13-1.086,2.82,2.82,0,0,0-1.171-.552l-.057-.01H7.356a1.082,1.082,0,0,0-.932.359.889.889,0,0,0-.182.741.877.877,0,0,0,.38.523c.951.634,1.119,1.888,1.715,3a3.224,3.224,0,0,0,2.985,1.635H13.13v3.341a14.61,14.61,0,0,1-9.508-11.2A31.312,31.312,0,0,1,8.9,20.1Zm18.067.005a31.787,31.787,0,0,1,5.417.466,14.611,14.611,0,0,1-9.509,11.2v-3.62a6.519,6.519,0,0,0-.992-3.332,5.232,5.232,0,0,0-.667-.86,9.357,9.357,0,0,0,3.963-1.683A6.264,6.264,0,0,0,26.962,20.106ZM17.1,24.33h1.948A2.186,2.186,0,0,1,20.7,25.558a5.388,5.388,0,0,1,.783,2.6V32.19a14.664,14.664,0,0,1-6.957,0V28.156a5.162,5.162,0,0,1,.841-2.581A2.367,2.367,0,0,1,17.1,24.33Zm-7.924.822a3.275,3.275,0,0,0,2.429,1.2c.542,0,1.219.02,1.861-.038h.007a6.2,6.2,0,0,0-.2.735H11.322a1.8,1.8,0,0,1-1.743-.868l-.005-.01,0-.008A9.768,9.768,0,0,1,9.171,25.152Z" transform="translate(-2 -2)" fill="#fff"/>
</svg>
