<svg xmlns="http://www.w3.org/2000/svg" width="30" height="30" viewBox="0 0 30 30">
  <path id="icone-linkedin" d="M5.913,3.012a4.174,4.174,0,0,0-2.769.945,3.3,3.3,0,0,0-1.136,2.5A3.633,3.633,0,0,0,5.728,9.941a.606.606,0,0,0,.185.033A4.1,4.1,0,0,0,8.726,8.98,3.408,3.408,0,0,0,9.818,6.456q0-.019,0-.038A3.685,3.685,0,0,0,5.913,3.012Zm0,1.379c1.7,0,2.541.894,2.613,2.083A1.92,1.92,0,0,1,7.89,7.932a2.863,2.863,0,0,1-1.977.662c-1.7,0-2.616-.986-2.616-2.139a1.806,1.806,0,0,1,.657-1.427A2.96,2.96,0,0,1,5.913,4.391ZM2.652,11.378a.676.676,0,0,0-.652.7V32.314a.676.676,0,0,0,.652.7H9.174a.676.676,0,0,0,.652-.7V12.076a.676.676,0,0,0-.652-.7Zm9.783,0a.676.676,0,0,0-.652.7V32.314a.676.676,0,0,0,.652.7h6.522a.676.676,0,0,0,.652-.7V20.8a2.288,2.288,0,1,1,4.565,0V32.314a.676.676,0,0,0,.652.7h6.522a.676.676,0,0,0,.652-.7V20.45a10.141,10.141,0,0,0-2.123-6.717,6.718,6.718,0,0,0-5.189-2.355,7.536,7.536,0,0,0-5.079,1.816V12.076a.676.676,0,0,0-.652-.7Zm-9.13,1.4H8.522V31.616H3.3Zm9.783,0H18.3v1.841a.7.7,0,0,0,.419.651.624.624,0,0,0,.718-.185,7.257,7.257,0,0,1,5.245-2.308,5.4,5.4,0,0,1,4.228,1.9A8.67,8.67,0,0,1,30.7,20.45V31.616H25.478V20.8a.74.74,0,0,0-.055-.286,3.682,3.682,0,0,0-3.532-3.552A3.729,3.729,0,0,0,18.3,20.8V31.616H13.087Z" transform="translate(-2 -3.012)" fill="#fff"/>
</svg>
