<svg xmlns="http://www.w3.org/2000/svg" width="52" height="52" viewBox="0 0 52 52">
  <g id="linkedin-icone" transform="translate(-372 397)">
    <path id="Path_4" data-name="Path 4" d="M259.3,251.988v17.024h-5.58V251.988Zm.358-5.252a2.753,2.753,0,0,1-.853,2.1,3.148,3.148,0,0,1-2.29.84h-.032a3.018,3.018,0,0,1-2.232-.84,2.846,2.846,0,0,1-.848-2.1,2.783,2.783,0,0,1,.869-2.1,3.146,3.146,0,0,1,2.274-.834,3.057,3.057,0,0,1,2.248.834,2.869,2.869,0,0,1,.863,2.1Zm19.716,12.52v9.755h-5.565v-9.1a5.005,5.005,0,0,0-.684-2.824,2.4,2.4,0,0,0-2.137-1.022,2.709,2.709,0,0,0-1.785.594,3.634,3.634,0,0,0-1.074,1.471,4.152,4.152,0,0,0-.184,1.391v9.5h-5.565q.032-6.851.032-11.114t-.016-5.086l-.016-.824h5.565v2.476h-.032a7.6,7.6,0,0,1,.695-.963,7.137,7.137,0,0,1,.958-.893,4.447,4.447,0,0,1,1.469-.749,6.637,6.637,0,0,1,1.937-.267,5.951,5.951,0,0,1,4.649,1.947,8.308,8.308,0,0,1,1.753,5.712Z" transform="translate(131.618 -628.486)" fill="#8000ff"/>
    <path id="Path_5" data-name="Path 5" d="M36,10A26,26,0,1,0,62,36,26,26,0,0,0,36,10ZM53.33,53.33a24.4,24.4,0,1,1,5.258-7.789A24.44,24.44,0,0,1,53.33,53.33Z" transform="translate(362 -407)" fill="#8000ff"/>
  </g>
</svg>
