<svg xmlns="http://www.w3.org/2000/svg" width="52" height="52" viewBox="0 0 52 52">
  <path id="whats-icone" d="M33.345,28.622a15.372,15.372,0,0,1,3.369,1.517l-.068-.039a14.657,14.657,0,0,1,3.063,1.8l-.033-.024a1.408,1.408,0,0,1,.07.44c0,.024,0,.045,0,.069v0a7.008,7.008,0,0,1-.592,2.6l.017-.045A4.545,4.545,0,0,1,36.8,37.128l-.031.011a7.961,7.961,0,0,1-3.441.89h-.013A18.312,18.312,0,0,1,26.788,35.9l.094.048a19.437,19.437,0,0,1-5.756-3.963l0,0a44.422,44.422,0,0,1-4.909-6.054l-.1-.16a11.6,11.6,0,0,1-2.4-6.489l0-.028v-.269a7.392,7.392,0,0,1,2.5-5.3l.007-.007a2.564,2.564,0,0,1,1.758-.739h0a5.454,5.454,0,0,1,.638.054l-.028,0a5.111,5.111,0,0,0,.638.05h.007a1.318,1.318,0,0,1,.135-.006,1.409,1.409,0,0,1,.769.227l0,0a2.421,2.421,0,0,1,.52.906l0,.017q.271.672,1.118,2.955a17.754,17.754,0,0,1,.814,2.381l.031.136a3.4,3.4,0,0,1-1.164,1.926l-.007,0q-1.168,1.226-1.168,1.56a.94.94,0,0,0,.177.507l0,0a15.24,15.24,0,0,0,3.441,4.591l.011.011a21.607,21.607,0,0,0,4.983,3.337l.129.056a1.5,1.5,0,0,0,.74.236h0q.509,0,1.83-1.629t1.756-1.629Zm-6.871,17.8h.048a20.744,20.744,0,0,0,8.328-1.731l-.133.052a20.984,20.984,0,0,0,11.273-11.1l.052-.136a20.284,20.284,0,0,0,1.692-8.179,20.558,20.558,0,0,0-1.745-8.313l.052.134A20.981,20.981,0,0,0,34.854,5.96l-.138-.052a20.715,20.715,0,0,0-8.243-1.679A20.993,20.993,0,0,0,18.1,5.96l.135-.052A20.984,20.984,0,0,0,6.958,17.01l-.052.137a20.41,20.41,0,0,0-1.692,8.205,20.693,20.693,0,0,0,4.1,12.393l-.041-.056L6.6,45.517l8.192-2.587a20.746,20.746,0,0,0,11.583,3.493h.1ZM26.474,0h.072a24.859,24.859,0,0,1,9.989,2.078l-.159-.063A25.278,25.278,0,0,1,49.905,15.338l.063.165A24.387,24.387,0,0,1,52,25.328a24.7,24.7,0,0,1-2.094,9.986l.063-.16A25.274,25.274,0,0,1,36.542,48.579l-.166.063a24.571,24.571,0,0,1-9.832,2.015h-.186a25.169,25.169,0,0,1-12.367-3.224l.124.065L0,52,4.6,38.4A25.05,25.05,0,0,1,3.043,15.34l-.063.162A25.274,25.274,0,0,1,16.406,2.078l.166-.063A24.57,24.57,0,0,1,26.4,0h.068Z" transform="translate(0.001)" fill="#8000ff"/>
</svg>
