<svg xmlns="http://www.w3.org/2000/svg" width="23.815" height="24" viewBox="0 0 23.815 24">
  <path id="icone-zap" d="M15.271,13.21a7.014,7.014,0,0,1,1.543.7l-.031-.018a6.7,6.7,0,0,1,1.4.833l-.015-.011a.654.654,0,0,1,.032.2c0,.011,0,.021,0,.032h0a3.255,3.255,0,0,1-.271,1.2l.008-.021a2.088,2.088,0,0,1-1.087,1.01l-.014,0a3.624,3.624,0,0,1-1.576.411h-.006a8.342,8.342,0,0,1-2.988-.982l.043.022a8.9,8.9,0,0,1-2.636-1.829h0a20.473,20.473,0,0,1-2.248-2.794l-.047-.074A5.38,5.38,0,0,1,6.279,8.9V8.762A3.422,3.422,0,0,1,7.422,6.315l0,0a1.17,1.17,0,0,1,.8-.341h0A2.479,2.479,0,0,1,8.523,6l-.013,0a2.323,2.323,0,0,0,.292.023h0a.6.6,0,0,1,.062,0,.642.642,0,0,1,.352.105h0a1.119,1.119,0,0,1,.238.418l0,.008q.124.31.512,1.364a8.238,8.238,0,0,1,.373,1.1l.014.063a1.573,1.573,0,0,1-.533.889l0,0q-.535.566-.535.72a.436.436,0,0,0,.081.234h0a7.03,7.03,0,0,0,1.576,2.119l.005.005a9.891,9.891,0,0,0,2.282,1.54l.059.026a.681.681,0,0,0,.339.109h0q.233,0,.838-.752t.8-.752Zm-3.147,8.216h.022a9.438,9.438,0,0,0,3.814-.8l-.061.024a9.646,9.646,0,0,0,5.163-5.124l.024-.063a9.424,9.424,0,0,0,.775-3.775,9.551,9.551,0,0,0-.8-3.837l.024.062a9.646,9.646,0,0,0-5.124-5.163L15.9,2.727a9.424,9.424,0,0,0-3.775-.775,9.551,9.551,0,0,0-3.837.8l.062-.024A9.646,9.646,0,0,0,3.186,7.851l-.024.063A9.483,9.483,0,0,0,2.387,11.7a9.6,9.6,0,0,0,1.879,5.72L4.247,17.4,3.022,21.008l3.752-1.194a9.449,9.449,0,0,0,5.3,1.612h.047ZM12.124,0h.033a11.31,11.31,0,0,1,4.575.959L16.659.93a11.62,11.62,0,0,1,6.2,6.149l.029.076a11.331,11.331,0,0,1,.93,4.535,11.476,11.476,0,0,1-.959,4.609l.029-.074a11.62,11.62,0,0,1-6.149,6.2l-.076.029a11.178,11.178,0,0,1-4.5.93h-.085a11.458,11.458,0,0,1-5.664-1.488l.057.03L0,24l2.109-6.279A11.641,11.641,0,0,1,1.393,7.08l-.029.075A11.62,11.62,0,0,1,7.513.959L7.589.93a11.178,11.178,0,0,1,4.5-.93h.031Z" transform="translate(0.001 0)" fill="#fff"/>
</svg>
